<svg xmlns="http://www.w3.org/2000/svg" viewBox="0 0 24 24" fill="none">
  <path d="M12 2C6.48 2 2 6.59 2 12.25c0 4.54 2.94 8.39 7.02 9.74.51.1.7-.22.7-.49 0-.24-.01-.87-.01-1.71-2.85.63-3.45-1.25-3.45-1.25-.47-1.19-1.14-1.51-1.14-1.51-.93-.64.07-.63.07-.63 1.03.07 1.57 1.06 1.57 1.06.92 1.58 2.41 1.12 2.99.86.09-.67.36-1.12.65-1.38-2.28-.26-4.68-1.15-4.68-5.11 0-1.13.39-2.05 1.03-2.77-.1-.26-.45-1.3.1-2.71 0 0 .84-.27 2.75 1.04a9.42 9.42 0 0 1 5 0c1.91-1.31 2.75-1.04 2.75-1.04.55 1.41.2 2.45.1 2.71.64.72 1.03 1.64 1.03 2.77 0 3.97-2.41 4.84-4.71 5.1.37.33.7.98.7 1.98 0 1.43-.01 2.58-.01 2.93 0 .27.19.6.71.49A10.01 10.01 0 0 0 22 12.25C22 6.59 17.52 2 12 2Z" fill="#111827"/>
</svg>
