<svg width="709" height="500" viewBox="0 0 709 500" fill="none" xmlns="http://www.w3.org/2000/svg">
    <path
        d="M674.741 469.172C797.717 335.967 554.398 -85.6793 407.734 15.5257C374.377 38.5437 366.605 76.6299 359.184 112.997C350.731 154.424 342.732 193.62 297.887 205.769C268.268 213.794 245.407 202.196 222.064 190.354C200.478 179.403 178.48 168.243 150.345 172.197C99.5073 179.341 37.6367 308.383 3.80459 388.689C-9.30075 419.796 13.0188 453.456 46.7425 454.921L143.717 459.133C143.717 459.133 258.378 463.36 340.737 475.728C475.338 495.942 628.757 518.982 674.741 469.172Z"
        fill="#5cc2b1" />
</svg>