<svg width="713" height="441" viewBox="0 0 713 441" fill="none" xmlns="http://www.w3.org/2000/svg">
<path d="M662.54 428.586C825.397 389.328 554.074 -77.1254 410.031 11.0731C377.269 31.133 369.636 64.3245 362.348 96.0176C354.046 132.121 346.19 166.279 302.146 176.867C273.057 183.86 250.604 173.753 227.679 163.433C206.478 153.89 184.873 144.164 157.241 147.61C107.374 153.828 40.9454 289.19 4.06857 373.785C-9.92113 405.877 13.9106 440.787 48.9194 440.787C83.6162 440.787 124.605 440.787 157.241 440.787C237.709 440.787 346.741 440.787 346.741 440.787C346.741 440.787 611.927 440.787 662.54 428.586Z" fill="#D9D9D9"/>
</svg>
